<?xml version="1.0" encoding="UTF-8"?>
<svg xmlns="http://www.w3.org/2000/svg" xmlns:xlink="http://www.w3.org/1999/xlink" width="22px" height="22px" viewBox="0 0 22 22" version="1.1">
<g id="surface1">
<path style=" stroke:none;fill-rule:nonzero;fill:rgb(15.294118%,29.803922%,35.686275%);fill-opacity:1;" d="M 0 1.03125 C 0 0.460938 0.410156 0 0.917969 0 L 2.65625 0 C 3.496094 0 4.238281 0.550781 4.585938 1.375 L 20.285156 1.375 C 21.289062 1.375 22.023438 2.449219 21.757812 3.539062 L 20.195312 10.085938 C 19.867188 11.433594 18.78125 12.375 17.539062 12.375 L 6.519531 12.375 L 6.726562 13.601562 C 6.808594 14.085938 7.1875 14.4375 7.628906 14.4375 L 18.640625 14.4375 C 19.148438 14.4375 19.554688 14.898438 19.554688 15.46875 C 19.554688 16.039062 19.148438 16.5 18.640625 16.5 L 7.628906 16.5 C 6.304688 16.5 5.171875 15.441406 4.925781 13.984375 L 2.957031 2.34375 C 2.929688 2.179688 2.804688 2.0625 2.65625 2.0625 L 0.917969 2.0625 C 0.410156 2.0625 0 1.601562 0 1.03125 Z M 4.890625 19.9375 C 4.890625 18.796875 5.710938 17.875 6.722656 17.875 C 7.734375 17.875 8.554688 18.796875 8.554688 19.9375 C 8.554688 21.078125 7.734375 22 6.722656 22 C 5.710938 22 4.890625 21.078125 4.890625 19.9375 Z M 17.722656 17.875 C 18.734375 17.875 19.554688 18.796875 19.554688 19.9375 C 19.554688 21.078125 18.734375 22 17.722656 22 C 16.710938 22 15.890625 21.078125 15.890625 19.9375 C 15.890625 18.796875 16.710938 17.875 17.722656 17.875 Z M 17.722656 17.875 "/>
</g>
</svg>
