<svg width="503" height="220" fill="none" xmlns="http://www.w3.org/2000/svg"><path d="M156.358 134.766v35.449H2.843l-2.49-27.832L87.657 2.93h36.182L84.581 67.969l-39.697 66.797h111.474zM133.507 2.93v213.28H87.804V2.93h45.703zm191.162 87.597v37.94c0 15.625-1.758 29.15-5.273 40.576-3.418 11.426-8.399 20.85-14.942 28.271-6.445 7.422-14.16 12.94-23.144 16.553-8.887 3.516-18.75 5.274-29.59 5.274-8.692 0-16.797-1.123-24.317-3.37-7.519-2.246-14.306-5.712-20.361-10.4-5.957-4.785-11.084-10.742-15.381-17.871-4.297-7.129-7.617-15.625-9.961-25.488-2.246-9.864-3.369-21.045-3.369-33.545v-37.94c0-15.82 1.709-29.394 5.127-40.722 3.516-11.328 8.545-20.703 15.088-28.125 6.543-7.422 14.258-12.89 23.144-16.407C230.675 1.758 240.587 0 251.427 0c8.691 0 16.748 1.123 24.17 3.37 7.519 2.245 14.306 5.712 20.361 10.4 6.055 4.687 11.182 10.595 15.381 17.724 4.297 7.129 7.568 15.625 9.814 25.488 2.344 9.766 3.516 20.948 3.516 33.545zm-45.703 43.653V84.521c0-7.324-.44-13.671-1.319-19.043-.781-5.468-1.953-10.107-3.515-13.915-1.465-3.81-3.32-6.885-5.567-9.229-2.246-2.344-4.834-4.053-7.763-5.127-2.832-1.172-5.957-1.758-9.375-1.758-4.297 0-8.155.88-11.573 2.637-3.417 1.758-6.298 4.541-8.642 8.35-2.344 3.71-4.15 8.74-5.42 15.087-1.172 6.25-1.758 13.916-1.758 22.998v49.659c0 7.324.391 13.72 1.172 19.189.879 5.469 2.051 10.156 3.516 14.063 1.562 3.808 3.466 6.933 5.713 9.375 2.246 2.343 4.834 4.052 7.763 5.127 2.93 1.074 6.104 1.611 9.522 1.611 4.297 0 8.105-.83 11.426-2.49 3.32-1.758 6.152-4.541 8.496-8.35 2.441-3.906 4.248-9.033 5.42-15.381 1.269-6.347 1.904-14.062 1.904-23.144zm223.681.586v35.449H349.132l-2.49-27.832L433.946 2.93h36.182L430.87 67.969l-39.697 66.797h111.474zM479.796 2.93v213.28h-45.703V2.93h45.703z" fill="#8FA8A8"/></svg>