<svg xmlns="http://www.w3.org/2000/svg" width="22" height="22"><path d="M0 1.031C0 .461.41 0 .918 0h1.738c.84 0 1.582.55 1.93 1.375h15.7c1.003 0 1.737 1.074 1.472 2.164l-1.563 6.547c-.328 1.348-1.414 2.289-2.656 2.289H6.52l.208 1.227c.082.484.46.835.902.835h11.01c.507 0 .914.461.914 1.032 0 .57-.407 1.031-.914 1.031H7.629c-1.324 0-2.457-1.059-2.703-2.516L2.957 2.344c-.027-.164-.152-.281-.3-.281H.917C.41 2.063 0 1.601 0 1.03zm4.89 18.907c0-1.141.82-2.063 1.833-2.063 1.011 0 1.832.922 1.832 2.063 0 1.14-.82 2.062-1.832 2.062s-1.832-.922-1.832-2.063zm12.833-2.063c1.011 0 1.832.922 1.832 2.063 0 1.14-.82 2.062-1.832 2.062s-1.832-.922-1.832-2.063c0-1.14.82-2.062 1.832-2.062zm0 0" fill="#274c5b"/></svg>