<svg width="23" height="22" fill="none" xmlns="http://www.w3.org/2000/svg"><path d="M16.487 2.288a4.759 4.759 0 013.286 1.317 4.411 4.411 0 011.367 3.164v8.959a4.411 4.411 0 01-1.367 3.164 4.759 4.759 0 01-3.286 1.316H7.183a4.759 4.759 0 01-3.286-1.316 4.411 4.411 0 01-1.366-3.164v-8.96a4.411 4.411 0 011.366-3.163 4.759 4.759 0 013.286-1.317h9.304zm0-1.791H7.183C3.601.497.67 3.319.67 6.769v8.959C.67 19.178 3.6 22 7.183 22h9.304C20.07 22 23 19.178 23 15.728v-8.96c0-3.45-2.93-6.271-6.513-6.271z" fill="#274C5B"/><path d="M17.883 6.77c-.276 0-.546-.08-.775-.227a1.356 1.356 0 01-.514-.603 1.298 1.298 0 01-.08-.777c.054-.26.187-.5.382-.688a1.441 1.441 0 011.521-.291c.255.101.473.274.627.495a1.31 1.31 0 01-.173 1.697c-.13.125-.284.224-.453.292a1.44 1.44 0 01-.535.101zm-6.047.895c.736 0 1.455.21 2.067.604.612.394 1.09.953 1.371 1.608.282.655.356 1.376.212 2.071a3.546 3.546 0 01-1.019 1.835 3.769 3.769 0 01-1.905.981 3.856 3.856 0 01-2.15-.204 3.695 3.695 0 01-1.671-1.32 3.49 3.49 0 01-.627-1.991 3.522 3.522 0 011.09-2.533 3.8 3.8 0 012.632-1.051zm0-1.792a5.736 5.736 0 00-3.102.906 5.425 5.425 0 00-2.056 2.413 5.191 5.191 0 00-.318 3.106c.216 1.043.747 2 1.528 2.752a5.652 5.652 0 002.858 1.471 5.782 5.782 0 003.226-.305 5.542 5.542 0 002.505-1.98 5.233 5.233 0 00.941-2.987 5.277 5.277 0 00-1.635-3.801 5.694 5.694 0 00-3.947-1.575z" fill="#274C5B"/></svg>