<?xml version="1.0" encoding="utf-8"?><svg viewBox="0 0 57 56" xmlns="http://www.w3.org/2000/svg" xmlns:xlink="http://www.w3.org/1999/xlink"><style>:root>svg{display:none}:root>svg:target{display:block}</style><svg fill="none" viewBox="0 0 57 56" id="cart-icon" xmlns="http://www.w3.org/2000/svg"><circle cx="28.791" cy="28" r="28" fill="#274C5B"/><g stroke="#fff" stroke-linecap="round" stroke-linejoin="round"><path d="M25.569 39a1.222 1.222 0 1 0 0-2.444 1.222 1.222 0 0 0 0 2.444zm8.556 0a1.222 1.222 0 1 0 0-2.444 1.222 1.222 0 0 0 0 2.444z" fill="#fff" stroke-width="1.5"/><path d="M15.791 17h3.782l2.836 16.073h15.128" stroke-width="2"/><path d="m21.902 29.184 15.247.107a.473.473 0 0 0 .464-.38l1.702-8.51a.471.471 0 0 0-.464-.565H20.358" stroke-width="2"/></g></svg><svg fill="none" viewBox="0 0 8 6" id="menu-arrow" xmlns="http://www.w3.org/2000/svg"><path d="m.791 1.5 3 3 3-3" stroke="#274C5B" stroke-width="1.5" stroke-linecap="round" stroke-linejoin="round"/></svg><svg fill="none" viewBox="0 0 57 56" id="search" xmlns="http://www.w3.org/2000/svg"><circle cx="28.791" cy="28" r="28" fill="#7EB693"/><path d="m40.47 35.892-4.761-4.76a8.794 8.794 0 0 0 1.762-5.292c0-4.874-3.965-8.84-8.84-8.84-4.874 0-8.84 3.966-8.84 8.84 0 4.875 3.966 8.84 8.84 8.84a8.794 8.794 0 0 0 5.291-1.763l4.761 4.761a1.265 1.265 0 0 0 1.786-1.786zM22.316 25.84a6.315 6.315 0 1 1 6.314 6.315 6.322 6.322 0 0 1-6.314-6.315z" fill="#FAFAFA"/></svg></svg>