<?xml version="1.0" encoding="utf-8"?><svg viewBox="0 0 57 56" xmlns="http://www.w3.org/2000/svg" xmlns:xlink="http://www.w3.org/1999/xlink"><style>:root>svg{display:none}:root>svg:target{display:block}</style><svg fill="none" viewBox="0 0 57 56" id="cart-icon" xmlns="http://www.w3.org/2000/svg"><circle cx="28.791" cy="28" r="28" fill="#274C5B"/><g stroke="#fff" stroke-linecap="round" stroke-linejoin="round"><path d="M25.569 39a1.222 1.222 0 1 0 0-2.444 1.222 1.222 0 0 0 0 2.444zm8.556 0a1.222 1.222 0 1 0 0-2.444 1.222 1.222 0 0 0 0 2.444z" fill="#fff" stroke-width="1.5"/><path d="M15.791 17h3.782l2.836 16.073h15.128" stroke-width="2"/><path d="m21.902 29.184 15.247.107a.473.473 0 0 0 .464-.38l1.702-8.51a.471.471 0 0 0-.464-.565H20.358" stroke-width="2"/></g></svg><svg viewBox="0 0 22 22" id="cart-mobile" xmlns="http://www.w3.org/2000/svg"><path style="stroke:none;fill-rule:nonzero;fill:#274c5b;fill-opacity:1" d="M0 1.031C0 .461.41 0 .918 0h1.738c.84 0 1.582.55 1.93 1.375h15.7c1.003 0 1.737 1.074 1.472 2.164l-1.563 6.547c-.328 1.348-1.414 2.289-2.656 2.289H6.52l.208 1.227c.082.484.46.835.902.835H18.64c.507 0 .914.461.914 1.032 0 .57-.407 1.031-.914 1.031H7.629c-1.324 0-2.457-1.059-2.703-2.516L2.957 2.344c-.027-.164-.152-.281-.3-.281H.917C.41 2.063 0 1.601 0 1.03Zm4.89 18.907c0-1.141.82-2.063 1.833-2.063 1.011 0 1.832.922 1.832 2.063 0 1.14-.82 2.062-1.832 2.062s-1.832-.922-1.832-2.063Zm12.833-2.063c1.011 0 1.832.922 1.832 2.063 0 1.14-.82 2.062-1.832 2.062s-1.832-.922-1.832-2.063c0-1.14.82-2.062 1.832-2.062Zm0 0"/></svg><svg viewBox="0 0 22 22" id="cart-shopping-solid" xmlns="http://www.w3.org/2000/svg"><path d="M0 1.031C0 .461.41 0 .918 0h1.738c.84 0 1.582.55 1.93 1.375h15.7c1.003 0 1.737 1.074 1.472 2.164l-1.563 6.547c-.328 1.348-1.414 2.289-2.656 2.289H6.52l.208 1.227c.082.484.46.835.902.835h11.01c.507 0 .914.461.914 1.032 0 .57-.407 1.031-.914 1.031H7.629c-1.324 0-2.457-1.059-2.703-2.516L2.957 2.344c-.027-.164-.152-.281-.3-.281H.917C.41 2.063 0 1.601 0 1.03zm4.89 18.907c0-1.141.82-2.063 1.833-2.063 1.011 0 1.832.922 1.832 2.063 0 1.14-.82 2.062-1.832 2.062s-1.832-.922-1.832-2.063zm12.833-2.063c1.011 0 1.832.922 1.832 2.063 0 1.14-.82 2.062-1.832 2.062s-1.832-.922-1.832-2.063c0-1.14.82-2.062 1.832-2.062zm0 0" fill="#274c5b"/></svg><svg viewBox="0 0 22 22" id="magnifying-glass-solid" xmlns="http://www.w3.org/2000/svg"><path d="M17.875 8.938c0 1.972-.64 3.792-1.719 5.273l5.442 5.441c.535.54.535 1.41 0 1.95-.54.535-1.41.535-1.95 0l-5.437-5.446a8.9 8.9 0 0 1-5.274 1.719C4 17.875 0 13.875 0 8.937 0 4 4 0 8.938 0c4.937 0 8.937 4 8.937 8.938zm-8.938 6.187a6.187 6.187 0 0 0 6.188-6.188A6.187 6.187 0 0 0 8.937 2.75 6.187 6.187 0 0 0 2.75 8.938a6.187 6.187 0 0 0 6.188 6.187zm0 0" fill="#274c5b"/></svg><svg fill="none" viewBox="0 0 8 6" id="menu-arrow" xmlns="http://www.w3.org/2000/svg"><path d="m.791 1.5 3 3 3-3" stroke="#274C5B" stroke-width="1.5" stroke-linecap="round" stroke-linejoin="round"/></svg><svg fill="none" viewBox="0 0 57 56" id="search" xmlns="http://www.w3.org/2000/svg"><circle cx="28.791" cy="28" r="28" fill="#7EB693"/><path d="m40.47 35.892-4.761-4.76a8.794 8.794 0 0 0 1.762-5.292c0-4.874-3.965-8.84-8.84-8.84-4.874 0-8.84 3.966-8.84 8.84 0 4.875 3.966 8.84 8.84 8.84a8.794 8.794 0 0 0 5.291-1.763l4.761 4.761a1.265 1.265 0 0 0 1.786-1.786zM22.316 25.84a6.315 6.315 0 1 1 6.314 6.315 6.322 6.322 0 0 1-6.314-6.315z" fill="#FAFAFA"/></svg><svg viewBox="0 0 22 22" id="search-mobile" xmlns="http://www.w3.org/2000/svg"><path style="stroke:none;fill-rule:nonzero;fill:#274c5b;fill-opacity:1" d="M17.875 8.938c0 1.972-.64 3.792-1.719 5.273l5.442 5.441c.535.54.535 1.41 0 1.95-.54.535-1.41.535-1.95 0l-5.437-5.446a8.9 8.9 0 0 1-5.274 1.719C4 17.875 0 13.875 0 8.937 0 4 4 0 8.938 0c4.937 0 8.937 4 8.937 8.938Zm-8.938 6.187a6.187 6.187 0 0 0 6.188-6.188A6.187 6.187 0 0 0 8.937 2.75 6.187 6.187 0 0 0 2.75 8.938a6.187 6.187 0 0 0 6.188 6.187Zm0 0"/></svg></svg>