<svg width="25" height="20" viewBox="0 0 25 20" fill="none" xmlns="http://www.w3.org/2000/svg">
<path d="M24.2556 2.94599C23.3581 3.33595 22.4086 3.59287 21.4369 3.70862C22.458 3.11067 23.226 2.16072 23.5967 1.03693C22.6312 1.60147 21.5767 1.99758 20.4784 2.20829C20.0159 1.72356 19.4596 1.33795 18.8434 1.07489C18.2272 0.811824 17.564 0.67681 16.894 0.678048C14.1815 0.678048 11.9863 2.84131 11.9863 5.50802C11.9844 5.87894 12.0269 6.24877 12.1129 6.60959C10.1678 6.5184 8.26315 6.02221 6.5208 5.15275C4.77845 4.28329 3.23677 3.05972 1.9944 1.5603C1.55854 2.29508 1.32804 3.13343 1.32698 3.98775C1.32698 5.66253 2.20076 7.14293 3.52015 8.01023C2.73845 7.99168 1.97276 7.78478 1.2881 7.4071V7.46692C1.2881 9.80963 2.98282 11.7586 5.22584 12.2022C4.80405 12.3146 4.36939 12.3716 3.93287 12.3717C3.62312 12.3722 3.31408 12.3421 3.01024 12.2819C3.6338 14.201 5.44865 15.5966 7.59846 15.6365C5.85158 16.9828 3.70688 17.7104 1.50143 17.7051C1.10996 17.7045 0.718851 17.6812 0.330078 17.6353C2.57369 19.0679 5.1817 19.8257 7.8437 19.8185C16.8836 19.8185 21.8222 12.4564 21.8222 6.07126C21.8222 5.86191 21.8167 5.65257 21.8067 5.4482C22.7653 4.76635 23.5946 3.91902 24.2556 2.94599Z" fill="#274C5B"/>
</svg>
